<?xml version="1.0" standalone="no"?><!DOCTYPE svg PUBLIC "-//W3C//DTD SVG 1.1//EN" "http://www.w3.org/Graphics/SVG/1.1/DTD/svg11.dtd"><svg t="1742889808164" class="icon" viewBox="0 0 1275 1024" version="1.1" xmlns="http://www.w3.org/2000/svg" p-id="5013" xmlns:xlink="http://www.w3.org/1999/xlink" width="249.0234375" height="200"><path d="M1251.325811 153.496615L641.35313 14.352298c-2.919112-0.608148-5.959853-0.608148-9.000594 0L22.623114 153.496615c-9.243853 2.067704-15.811854 10.21689-15.811854 19.704003s6.568001 17.636299 15.811854 19.704003l237.542701 53.881933V350.293384c0 93.533199 194.120917 143.887873 376.930277 143.887873s377.173536-50.111415 377.173536-143.887873c0.12163-0.729778 0.12163-1.459556 0-2.189334V246.908184l237.664331-53.881934c9.243853-2.067704 15.811854-10.21689 15.811854-19.704003s-6.568001-17.636299-15.811854-19.704003h-0.608148v-0.121629z m-278.045374 196.675139c-0.973037 43.543414-127.954389 103.50683-335.819456 103.50683S301.641525 393.228649 301.641525 349.928495v-94.019717l332.170567 75.532011h4.500297c1.459556 0.12163 3.040741 0.12163 4.500297 0l338.130419-77.234826-7.662668 1.702815v94.262976z m-335.819456-58.747119l-518.872075-118.467277 518.142297-117.737498 518.993705 117.737498-518.263927 118.467277z" p-id="5014"></path><path d="M637.096092 496.005701c-94.627866 0-188.525953-13.500891-257.611593-36.975412-79.30253-27.001782-121.143129-64.585343-121.143128-108.736905v-102.047274l-236.083146-53.517045c-10.095261-2.310963-17.27141-11.068298-17.271409-21.528447s7.05452-19.217484 17.271409-21.528448L631.987647 12.527854c3.284-0.608148 6.568001-0.608148 9.730372 0l610.33757 139.265946h0.243259c10.095261 2.310963 17.27141 11.068298 17.27141 21.528447 0 10.33852-7.05452 19.217484-17.27141 21.528448l-236.204775 53.517045v99.614681c0.12163 0.851408 0.12163 1.702815 0 2.432593-0.12163 44.151562-41.962228 81.735123-121.264758 108.736904-69.08564 23.352892-162.983727 36.853783-257.733223 36.853783z m-0.243259-480.315477c-1.337926 0-2.797482 0.12163-4.257038 0.364889L22.988003 155.32106c-8.514075 1.946074-14.352298 9.243853-14.352298 17.879558s5.959853 16.055113 14.352298 17.879558l239.002257 54.246822V350.293384c0 92.316902 193.269509 142.063428 375.105832 142.063428 181.957952 0 375.349091-49.746526 375.349092-142.063428v-0.243259c0.12163-0.486519 0.12163-1.094667 0-1.581186V245.570258l1.459555-0.364889 237.664331-53.881934c8.514075-1.946074 14.352298-9.243853 14.352298-17.879558s-5.838223-15.933484-14.230668-17.879558h-2.189334v-0.486519L640.988241 16.176743c-1.337926-0.364889-2.675852-0.486519-4.135408-0.486519z m0.608148 439.812805c-93.898088 0-181.349804-12.649483-246.421665-35.759116-57.044305-20.190521-91.222235-46.340896-91.222236-69.815418v-96.330681L634.055351 329.616344h4.500297c1.337926 0.12163 2.797482 0.12163 4.013778 0l328.886566-75.167122 9.122224-2.067704 0.851407 3.52726-6.203112 1.459556v92.80342c-0.486519 23.596152-34.786079 49.746526-91.587124 69.815418-64.950232 22.866374-152.280318 35.515857-246.178406 35.515857zM303.46597 258.219741v91.708754c0 21.528448 34.056301 47.070673 88.789642 66.409787 64.706972 22.866374 151.7938 35.515857 245.205369 35.515857 205.432474 0 333.021974-59.233638 333.995011-101.682385v-91.952013l-328.400047 75.045492h-0.12163c-1.581185 0.12163-3.162371 0.12163-4.743556 0h-4.865186l-329.859603-75.045492z m333.995011 35.029338l-0.364889-0.121629-526.656372-120.291721 526.413113-119.561944 0.364889 0.12163 526.778002 119.561943-526.534743 120.291721z m-510.601259-120.291721l510.601259 116.642832 509.993111-116.642832-510.722889-115.913053-509.871481 115.913053z" fill="#231815" p-id="5015"></path><path d="M1014.269628 355.523459c-1.702815 17.27141-9.243853 33.326523-21.285188 45.732747 23.474522 47.800451 36.975413 99.85794 39.651265 153.010096H897.018648c-1.459556-31.502079-5.959853-62.760898-13.257631-93.411569-12.284594 4.013778-25.298967 7.541038-38.678228 10.825039 6.203112 27.123411 10.095261 54.733341 11.676446 82.464901H656.921725v-60.085046H616.662311v59.841786H416.946431c1.459556-27.853189 5.351704-55.463119 11.798075-82.58653-13.62252-3.40563-26.515263-6.93289-39.043116-10.825039-7.297779 30.650671-11.798076 61.90949-13.136002 93.411569H241.799739c2.675852-53.152156 16.176743-105.209645 39.651265-153.010096-12.041335-12.406224-19.582373-28.461337-21.285189-45.732747-38.799857 66.409787-59.233638 142.063428-59.233638 218.933365 0.12163 240.705072 195.093954 435.920656 435.799026 436.163915h5.230075c238.637368-3.162371 430.447322-197.526547 430.568951-436.163915 0.243259-76.748307-19.825632-152.158689-58.260601-218.568476zM242.529517 595.377123h134.644019c2.189334 58.74712 15.082076 116.521202 37.94845 170.646395h-124.06224c-29.312745-52.665637-46.219266-111.291127-49.260007-171.497802l0.729778 0.851407z m75.045492 211.757216h117.980758c32.475116 60.449935 76.869937 113.84535 130.386982 156.902245C465.719919 945.670507 376.322129 889.112721 316.845231 806.404561l0.729778 0.729778z m299.93871 145.347428c-54.854971-38.313339-101.074237-87.938235-135.495427-145.347428h135.495427v145.347428z m0-185.606841h-158.118541c-25.420596-53.760304-40.016154-112.020905-42.692007-171.497803H616.662311l0.851408 171.497803z m40.259413-171.497803h198.986103c-2.189334 58.868749-15.690224 116.886091-39.651265 170.646395H657.164984l0.608148-170.646395z m0 362.942867V806.404561h139.630835c-34.786079 60.571564-82.70816 112.385794-140.482242 151.67217l0.851407 0.243259z m61.422972 4.013779c51.327711-42.813636 93.533199-95.600903 124.06224-155.19943h114.331869C899.694501 886.436869 814.432118 941.41347 718.344697 961.482361l0.851407 0.851408z m263.084927-196.310251h-121.508018c21.893337-54.611712 34.177931-112.629053 36.124006-171.497802h135.008908c-3.284 60.206675-20.190521 118.953795-49.624896 171.497802z" p-id="5016"></path><path d="M636.731203 1012.080295c-59.112009 0-116.399572-11.676446-170.281506-34.54282-52.057489-22.136596-98.884903-53.638674-139.022687-93.898088s-71.761492-87.086827-93.776458-139.144316c-22.866374-54.003563-34.42119-111.291127-34.42119-170.403136 0-77.234826 20.55541-153.253356 59.476898-219.906402l2.797482-4.865186 0.608148 5.594964c1.702815 16.663262 9.000594 32.475116 20.798669 44.63808l0.851408 0.973037-0.608148 1.094667c-23.231263 47.313933-36.488894 97.911866-39.408006 150.334244h131.11676c1.459556-30.407412 5.838223-61.422972 13.136002-91.952013l0.486518-1.946075 1.824445 0.608149c11.798076 3.648889 24.569189 7.176149 38.921487 10.825038l1.702815 0.486519-0.364889 1.702815c-6.203112 26.028745-10.095261 53.030526-11.676446 80.397197h195.945362v-59.841787h43.908302v60.085046h196.066992c-1.702815-27.001782-5.473334-54.003563-11.554817-80.275567l-0.364889-1.702815 1.702815-0.486519c14.960447-3.648889 27.60993-7.176149 38.556599-10.825038l1.824444-0.608149 0.486519 1.946075c7.297779 30.407412 11.676446 61.422972 13.257631 91.952013h131.968168c-2.919112-52.544008-16.176743-103.141941-39.408006-150.334244l-0.608148-1.094667 0.851407-0.973037c11.798076-12.162965 19.095855-27.974819 20.79867-44.63808l0.608148-5.594964 2.797482 4.865186c38.556598 66.531417 58.74712 142.428317 58.50386 219.541513 0 115.913054-44.88134 225.136477-126.373203 307.601378-81.491864 82.464901-190.107139 128.805796-306.020193 130.265352h-5.108445zM259.071149 360.753534C222.217365 425.703765 202.756622 499.289702 202.756622 574.091935c0.12163 239.245516 194.850695 434.096211 433.974581 434.33947h5.230075c236.326405-3.162371 428.622877-198.013066 428.744507-434.33947 0.243259-74.558974-18.852595-148.14491-55.34149-212.973512-2.554223 15.082076-9.608742 29.191115-20.190521 40.502672 23.352892 48.043711 36.610524 99.371422 39.286376 152.523578l0.121629 1.946074H895.315833l-0.121629-1.702815c-1.459556-30.285782-5.716593-60.936453-12.771113-91.100606-10.21689 3.284-21.771707 6.446371-35.150968 9.852002 5.959853 26.515263 9.730372 53.760304 11.311557 81.005345l0.121629 1.946074H655.09728v-60.085046h-36.610524V555.847488H415.000356l0.12163-1.946075c1.459556-27.4883 5.230075-54.854971 11.433187-81.126974-13.014372-3.284-24.690818-6.568001-35.515857-9.852002-7.05452 30.407412-11.311557 61.058083-12.649483 91.222236l-0.12163 1.702815H239.853664l0.12163-1.946075c2.675852-53.273785 15.933484-104.601497 39.286376-152.523577-10.581779-11.433187-17.636299-25.542226-20.190521-40.624302z m313.68286 606.323791l-7.05452-1.337926c-50.111415-9.122224-97.425347-27.60993-140.482242-54.976601-43.056895-27.245041-80.032308-62.03112-109.831572-103.3852l2.189334-1.824444v-0.24326h0.364889l0.243259-0.243259 0.243259 0.243259H436.650434l0.486518 0.973037c32.475116 60.571564 76.261789 113.115572 129.900463 156.294097l5.716594 4.500297z m-251.77337-158.118541c58.017342 78.816011 142.306687 132.576315 238.272479 151.915429-51.206081-42.327117-93.16831-93.411569-124.670388-151.915429h-113.602091z m398.093835 155.807578l-4.378667-4.378667 3.284001-0.729778c0.729778-0.12163 1.337926-0.243259 2.067704-0.486519 50.476304-42.570377 91.465495-94.019717 121.629647-153.010096l0.486518-0.973037h119.075425l-2.067704 2.919111c-57.652453 78.937641-141.820169 133.670982-237.421071 154.469652-0.486519 0.364889-0.851408 0.729778-1.337926 1.094667l-1.337927 1.094667z m125.278537-155.807578c-29.312745 56.922675-68.477491 106.79083-116.764461 148.631429 90.735717-21.285188 170.646395-73.707566 226.352773-148.631429h-109.588312zM659.597577 960.752583l-6.93289-1.946074 3.162371-2.189334v-152.037059h144.61765l-1.581185 2.675853C764.563962 867.219385 716.398622 919.398503 659.597577 958.44162v2.310963z m0-152.523577v145.833947c54.611712-37.94845 101.074237-88.181494 134.644019-145.833947H659.597577zM619.338164 956.009027l-2.919112-1.946074c-54.611712-38.191709-101.682385-88.668013-135.981945-145.955577l-1.702816-2.797482h140.482243V956.009027zM485.302292 808.958784c33.326523 54.733341 78.329493 103.020311 130.386982 139.995724V808.958784H485.302292zM619.338164 768.69937H458.300511l-0.486519-1.094666c-25.785485-54.490082-40.137784-112.385794-42.813636-172.227581l-0.243259-1.824445h203.729659l0.851408 175.146692z m-158.72669-3.648889h155.0778l-0.851407-167.848913H418.649246c2.797482 58.260601 16.906521 114.696757 41.962228 167.848913z m522.764224 2.797482h-125.278537l0.973037-2.554223c21.893337-54.733341 34.056301-112.264164 36.002376-170.889654v-1.824445h138.657798l-0.12163 1.946075c-3.284 60.328305-20.55541 119.926832-49.868155 172.34921l-0.364889 0.973037z m-119.926832-3.648889h117.737498c28.461337-51.084452 45.246229-109.101794 48.773489-167.848914h-131.360019c-2.067704 57.530823-13.86578 113.966979-35.150968 167.848914z m-45.124599 3.648889h-162.983728l0.608148-174.295285H858.705309l-0.121629 1.946075c-2.189334 59.355268-15.568595 117.007721-39.772895 171.376173l-0.486518 0.973037z m-159.334838-3.648889h156.902245c23.474522-53.030526 36.610524-109.101794 38.921487-166.997506H659.597577l-0.608148 166.997506z m-241.069961 3.648889H289.965079l-0.486519-0.973037c-29.312745-52.665637-46.462525-112.264164-49.503266-172.34921l-0.243259-5.351705 3.648889 4.257038h135.617057l0.121629 1.702815c2.189334 58.62549 14.960447 115.791424 37.826821 170.038247l0.973037 2.675852z m-125.765055-3.648889H412.324504c-22.136596-53.273785-34.664449-109.466683-36.975413-166.997506H243.745813c3.40563 58.138971 20.068892 115.791424 48.4086 166.997506z" fill="#231815" p-id="5017"></path><path d="M763.955814 622.135646l-5.594964-333.751752c-0.12163-4.743556-1.946074-9.365483-5.108445-12.892743l-101.195866-115.426535c-4.621927-5.959853-12.041335-8.757335-19.460744-7.419409s-13.379261 6.568001-15.690224 13.74415c-2.310963 7.176149-0.364889 14.960447 4.865186 20.312151l95.965791 109.831572 5.959853 325.845825c-23.596152 7.905927-39.529635 30.042523-39.529635 54.854971v3.040741c0 15.446965 6.081482 30.285782 17.02815 41.23245s25.785485 17.14978 41.232451 17.149781h2.919111c32.231857 0 58.260601-26.028745 58.382231-58.260601v-3.040742c-0.12163-25.177337-16.176743-47.313933-39.772895-55.219859z m0 58.017341c-0.12163 9.973631-8.149186 17.879558-18.122817 17.879558h-3.52726c-4.743556 0-9.365483-1.824445-12.649483-5.230074a17.757928 17.757928 0 0 1-5.230075-12.649484v-3.040741c0-4.743556 1.946074-9.365483 5.230075-12.649483 3.40563-3.40563 7.905927-5.230075 12.649483-5.230075h2.919112c9.973631 0 18.001188 8.027557 18.122817 17.879558l0.608148 3.040741z" p-id="5018"></path></svg>