<?xml version="1.0" standalone="no"?><!DOCTYPE svg PUBLIC "-//W3C//DTD SVG 1.1//EN" "http://www.w3.org/Graphics/SVG/1.1/DTD/svg11.dtd"><svg t="1742889852351" class="icon" viewBox="0 0 1024 1024" version="1.1" xmlns="http://www.w3.org/2000/svg" p-id="5166" xmlns:xlink="http://www.w3.org/1999/xlink" width="200" height="200"><path d="M259.67602105 83.94062236C272.11211836 70.8433934 289.79166772 62.60205616 307.92716871 62.31708629c137.57219451 0.02279798 275.13299048-0.03419654 412.69378647 0.02279797 34.89174679 0.80931542 65.70271988 31.81406914 66.63742285 66.62602345 0.05699363 112.85958223-0.01139855 225.71916535 0.03419653 338.57874757-0.07979161 18.01011431-7.97916446 35.63266917-20.73442904 48.25114766-12.64127647 12.66407356-30.28662842 20.35826814-48.22835056 20.42666031-8.0475575 0-16.08371559-0.02279798-24.11987455 0-1.33366011 18.05570938 1.03729168 36.81814465 9.5408017 52.99305125 5.52842104 11.2392233 12.65267502 21.56654157 19.18419124 32.22442569 2.71291618 4.2859511 4.39993922 9.31282457 3.79580206 14.43088909 1.56163636 2.86110083 3.20306433 5.6766057 4.78749866 8.51490855-2.97508808-0.82071398-5.92737906-1.72121956-8.87967004-2.58752862-7.38642673 3.44243914-15.1034184-0.26217278-22.1592793-2.64452312-34.80055576-12.16252686-67.20736262-33.70627045-88.05577979-64.55144094-8.08175404-11.72937143-14.25990645-24.73541026-18.30648363-38.3797819h-37.69585224c-11.35321142 33.43269913-22.46704716 66.94518985-33.88865164 100.35509188-0.96889864 3.23726087-4.1833624 4.70770708-6.39473098 6.93047511-1.1170833 2.75851126-1.74401755 5.6766057-2.63312371 8.51490768-1.12848185-2.79270779-2.14297555-5.60821265-3.1460707-8.43511608-3.56782669-1.74401755-6.22374836-4.86729027-7.28383716-8.70868829-10.95425342-32.86275937-21.7375242-65.78251148-32.71457471-98.64527086-12.35630659-0.03419654-24.70121373-0.01139855-37.0461209-0.01139944-7.73978966 26.38823676-23.73231512 50.06355826-44.48954123 67.99388097-20.31267307 17.69094791-44.8771007 30.00165855-70.54721307 37.82123979-4.35434416 1.78961262-9.11904485 1.48184477-13.41639537-0.2963693-2.91809446 0.76372036-5.83618892 1.56163636-8.75428336 2.33675528 1.47044621-2.7699098 3.31705246-5.34603989 4.49112937-8.25273579 0.46735105-4.1263679 0.34196438-8.52630711 2.70151764-12.15112742 9.9625568-16.33448983 21.69192825-32.07624104 26.9581774-50.7360876 3.31705246-11.92315116 3.82999858-24.4276424 3.14606982-36.71555593-8.10455113-0.01139855-16.19770372 0-24.2908563 0-18.47746537-0.05699363-36.59016839-8.2299378-49.33403442-21.5209465-12.12833033-12.50449036-19.54895269-29.63689706-19.65154229-47.12266582 0.03419654-112.49482076 0-224.98964151 0.01139943-337.48446139 0.36476148-17.10960873 7.62580152-33.90005019 19.53755416-46.15376718m0.42175598 47.30504611c-0.04559508 110.57982147 0.02279798 221.15964204-0.03419651 331.7394635-0.2165777 6.96467075 0.7181244 14.02053165 3.36264752 20.5064528 7.10145598 18.54585843 25.68151092 32.25862221 45.64082105 32.77156922 13.79255539 0.04559508 27.59651021-0.01139855 41.3890665 0.02279711 4.58232039 21.41835692 4.69630852 44.09058324-1.78961262 65.14417866-3.61342177 12.12833033-9.76877708 23.2763626-16.22050171 34.10522936 8.61749726-3.81860003 17.04121567-8.11595055 24.98618361-13.18841913 28.26903954-17.66814994 50.91846876-45.69781469 58.25929955-78.6061691 0.78651745-4.53672533 5.23205175-7.6713966 9.73458055-7.44342125 19.82252402-0.05699363 39.65644749 0 59.4789724-0.0227971 9.6433904 28.18924794 18.6142506 56.60647302 28.31463462 84.78432242 8.83407496-25.80689759 17.45157223-51.70498623 26.20585647-77.54608034 1.20827344-4.47973082 5.71080223-7.24964062 10.21333016-7.192647 17.45157223-0.07979161 34.90314534-0.04559508 52.36611699-0.02279798 4.29734964-0.19377973 8.62889669 2.63312459 9.5863959 6.95327219 2.14297555 8.64029525 4.86729027 17.16660237 8.91386656 25.12296972 15.09201986 30.98195572 43.49784552 53.71117566 74.73057549 67.12757104-6.40612953-10.82886586-12.81225821-21.86291088-16.35728781-34.02543774-6.13255822-21.12198849-6.46312317-43.72582176-1.91499929-65.18977375 11.48999664-0.01139855 22.97999417-0.01139855 34.48138935 0 4.5253259-0.01139855 9.1076463 0.19377973 13.58737801-0.64973223 23.1737739-3.9097902 42.43775673-25.59032076 42.31236915-49.31123645-0.02279798-111.67410678-0.01139855-223.33681412-0.01139855-335.01092089-0.29636931-24.11987456-20.55204788-45.90299382-44.352756-48.75269524-4.19476093-0.49014904-8.41231899-0.26217278-12.61847849-0.29636842-133.74219592 0-267.49579039 0.01139855-401.24938576 0-25.68151092 0.28496987-48.68430218 23.31055913-49.01486714 48.9806706z" p-id="5167"></path><path d="M503.188723 135.70260222c-0.19377973-4.92428478 3.81860003-9.51800374 8.68589033-10.09934293 3.02068403-0.34196438 5.91598051 0.76372036 8.77708046 1.53883927 1.19687489 3.53363016 2.56473153 7.13565249 2.46214283 10.93145544-0.06839306 15.70755557 0.2165777 31.41511026-0.31916729 47.11126639-6.38333156 1.77821407-12.81225821 3.36264753-19.32097644 4.59371896-0.44455308-18.02151286-0.30776786-36.05442514-0.28496989-54.07593713zM405.20458293 157.10956057c11.04544356 9.43821214 21.50954794 19.52615561 31.44930677 30.10424812 4.65071344 4.9014868 11.99154423 9.324224 11.2620204 17.07541133-0.2165777 6.50871823-7.37502818 9.3470211-13.00603794 8.93666454-6.26934343-5.63101064-12.58428195-11.2392233-18.24948912-17.48576876-6.69109941-7.27243861-14.76145404-13.32520434-20.1416913-21.72612564 3.07767766-5.53981961 5.82479036-11.25062183 8.68589119-16.90442959zM608.71887302 168.63375375c2.65592168-2.48493993 5.34603989-5.73359934 9.31282457-5.75639731 5.44862945-0.61553571 10.85166385 3.96678468 10.69208064 9.55220024 0.26217278 5.95017703-5.14086161 9.48380721-8.66309322 13.43919248-6.12115879 6.87348059-13.43919246 12.56148485-19.43496458 19.53755415-2.56473153 2.75851126-5.36883785 5.53981961-8.9480631 6.90767713-3.77300496 1.34505955-7.60300354-0.53574412-11.20502675-1.5730358-2.01758887-5.14086161-2.48493993-11.7977645 1.89220132-15.90133442 9.06205123-8.45791406 17.2577925-17.79353661 26.35404112-26.20585647zM504.59077618 199.38773322c20.09609536-2.38235035 41.04710211 3.23726087 57.19921075 15.46818076 14.88684159 11.18222879 25.33954654 28.01826619 28.93017031 46.2677553 2.58752862 15.12621639 1.49324332 30.82237252-2.29116019 45.65221961-2.70151675 10.60088961-8.13874767 20.18728639-14.02053164 29.31773065-9.07344976 13.80395483-12.68687155 30.18403973-16.83603741 45.92579094-1.15127983 4.03517774-2.98648751 8.0475575-6.30353996 10.76047282-4.17196298 3.69321337-9.99675334 4.51392735-15.37698974 4.39993922-16.32309039-0.12538667-32.64618166 0.11398812-48.96927206-0.1025887-8.32112884-0.25077336-15.46818077-7.02166436-17.04121568-15.04642479-2.97508808-11.53559173-5.93877847-23.1167794-10.42990787-34.16222296-3.96678468-9.57499735-10.68068121-17.65675138-15.10341927-26.99237393-6.50871823-13.14282405-8.811277-27.97267112-9.02785469-42.52894599-0.38755946-13.75835974 2.87249939-27.6193082 9.60919386-39.6336504 11.93455061-21.77171985 35.02853203-36.73835303 59.66135359-39.32588253m-5.63101064 21.3385662c-18.79663177 4.81029666-34.99433549 19.46916111-40.84192383 38.07201315-4.46833226 13.72416322-3.15746926 28.5768074 0.22797625 42.38076222 2.74711271 11.50139608 10.62368759 20.67743454 15.88993675 31.01615225 7.50041485 13.9293415 11.04544356 29.4887124 15.08062043 44.67192241 7.54600992 0.69532732 15.12621639 0.19377973 22.69502341 0.34196439 8.68589031-0.13678611 17.40597716 0.35336291 26.08046979-0.37616092 3.65901685-13.83815134 7.0558609-27.87008152 13.18841825-40.86472091 4.1263679-8.89106859 10.40710988-16.56246608 14.4422885-25.49912975 4.98127841-10.72627716 6.32633795-22.74061848 6.44032519-34.45859227-0.05699363-20.60904238-12.26511557-40.5911496-30.5488012-50.09775388-12.92624634-6.9532722-28.44002218-8.95946163-42.65433354-5.18645669zM353.10063871 269.87795266c18.72823872-1.82380916 37.54766846-1.08288677 56.33290081-1.26526795 3.76160641-0.07979161 7.44342035 0.76372036 11.05684211 1.70982102 1.44764825 3.22586232 3.28285594 6.62270637 2.50773792 10.29312265-0.84351197 5.12946305-6.26934343 8.19574217-11.17083024 7.9677659-13.38219885 0-26.75299913 0.01139855-40.13519799 0-3.21446376 0.01139855-6.96467075-0.68392877-8.78847989-3.65901685-3.16886782-5.07246856-6.24654634-10.22472959-9.80297272-15.04642477zM604.20494567 272.53387433c3.86419512-2.17717207 8.08175404-4.1833624 12.64127559-3.92118962 15.92413239 0.17098173 31.85966421-0.3761609 47.76099949 0.62693426 1.77821407 4.3429456 4.19476093 9.52940228 1.50464187 14.02053254-2.27976166 4.13776645-7.23824206 5.56261757-11.67237783 5.33464133-16.47127504-0.26217278-32.98814605 0.7181244-49.40242658-1.09428531-0.23937481-4.99267695-0.52434467-9.98535479-0.83211254-14.9666332zM474.50932604 415.36091946c1.88080276-4.25175457 6.793689-6.2579449 11.23922242-5.97297501 19.02460801 0.06839306 38.06061461-0.03419654 57.09662204 0.0569945 3.81860003-0.10258958 7.2952357 2.37095181 9.03925324 5.68800427 2.2113686 4.26315399 3.36264753 8.97086106 5.39163584 13.32520432-18.50026245 1.43624969-37.06891887 0.72952383-55.60337785 0.9005056-7.95636648-0.1595832-15.95832891 0.42175598-23.86910121-0.55854123-3.35124898-3.36264753-5.64240919-8.89106859-3.29425448-13.43919245zM488.18789329 449.34076124c10.72627716-3.22586232 22.01109553-1.6756245 33.03374114-2.02898742 4.9014868 0.26217278 10.38431278-1.03729168 14.76145402 1.85800479 5.38023642 3.32845189 5.71080223 11.88895553 1.02589313 15.93553183-2.84970139 2.32535674-6.74809304 1.9719938-10.17913449 2.14297553-9.91696172-0.01139855-19.84532202 0.06839306-29.76228374-0.02279797-4.26315399 0.03419654-8.811277-2.32535674-10.13353858-6.58850984-1.48184477-3.75020699 0.38755946-7.63720008 1.25386852-11.29621692zM282.1886633 688.1913512c14.81844852-1.74401755 30.28662842 2.2113686 42.3009706 11.09103863 15.28579958 11.04544356 24.99758215 29.69389069 24.55302908 48.62730771 0.27357134 15.59356744-6.0983617 31.16433692-17.17800089 42.1413874-11.13663372 11.54699115-27.20895076 18.20389403-43.25847071 17.78213807-18.95621497 0.25077336-37.57046555-9.58639591-48.46772449-25.02038014-9.75737853-13.55318058-13.37080029-31.30112212-9.82577157-47.61281397 4.92428478-24.57582706 26.91258234-44.58073227 51.87596798-47.0086777m-1.17407693 20.47225626c-15.53657294 3.40824348-28.55401029 16.56246608-31.36951517 32.27002076-3.70461192 18.62565002 8.44651551 38.5165671 26.24005213 44.64912533 10.11074146 3.65901685 21.74892275 2.92949301 31.25552704-2.13157698 15.1034184-7.6713966 24.54163053-25.51052917 21.40695925-42.32376861-3.4310406-21.27017316-26.33124314-37.53626992-47.53302325-32.4638005zM506.77934679 688.17995265c15.39978771-1.82380916 31.46070533 2.58752862 43.70302379 12.13972799 12.08273526 9.25583096 20.39246467 23.29916056 22.61523182 38.36838247 2.84970139 17.45157223-2.6901182 36.03162716-14.5106807 49.18584976-11.09103864 12.48169326-27.58511166 20.21008348-44.36415455 19.95931014-17.36038208 0.52434467-34.59537749-7.42062324-45.89159441-20.5292499-11.94594916-13.62157365-17.18940034-32.87415792-13.66716871-50.65629597 4.35434416-25.21415986 26.65040957-45.95998746 52.11534276-48.46772448m-2.15437497 20.71163106c-14.784252 3.68181482-27.08356408 16.1407101-30.13844375 31.13014037-3.29425537 14.07752614 2.88389792 29.32912922 13.76975827 38.49376914 11.5583897 9.95115827 29.07835498 12.3335086 42.69992863 5.31184334 16.7562458-7.89937286 26.9011829-28.50841523 21.32716677-46.46153415-5.33464134-19.82252402-27.49392152-33.87725307-47.65840992-28.4742187zM731.40422596 688.17995265c17.24639395-2.04038597 35.30210335 3.8072015 47.93198124 15.76454919 10.39571133 9.59779531 17.14380526 23.03698779 18.6940422 37.09171596 1.80101116 15.11481695-2.43934486 30.8679676-11.64957985 42.99629793-10.96565197 14.75005549-29.10115296 24.00588643-47.52162382 23.80070728-16.8588345 0.50154759-33.60368176-6.91907566-44.87710068-19.41216661-12.90344926-13.59877567-18.01011431-33.54668725-14.65886535-51.85317087 4.3429456-25.16856479 26.6618081-45.90299382 52.08114626-48.38793287m-2.17717207 20.71163106c-16.27749532 4.01237976-29.47731386 18.87642338-30.81097311 35.6896628-0.91190413 10.58949105 2.89529647 21.31576823 9.81437217 29.31772978 9.80297359 11.6951758 26.65040957 16.90442958 41.2864769 12.39050309 19.48056053-5.61961121 33.1591278-27.68770124 27.76749195-47.57861831-4.7419036-20.46085771-27.41412902-35.37049639-48.05736791-29.81927736zM264.668698 821.12423168c15.85573935-3.52223161 32.57778861-3.53363016 48.39933232 0.18238119 21.07639343 5.01547493 39.90722173 17.64535196 53.60858607 34.29900819 13.42779391 16.39148343 22.48984514 36.24820489 26.53642144 57.01682956 3.46523712 16.41428142 1.8922022 33.26171737 2.22276803 49.90397505-5.58541555 0-11.17083024 0.04559508-16.75624581 0-19.35517296-0.6383328-38.74454336-0.09119014-58.1225143-0.27357131H206.48919007c-5.16365958 0.01139855-10.33871771-0.19377973-15.49097787 0.28496985-3.07767766 0.02279798-6.14395676-0.01139855-9.22163442 0-0.30776786-16.40288287-1.32226157-33.01094314 1.80101116-49.23144481 4.42273719-22.61523182 14.47648415-44.32995803 30.01305709-61.46236477 13.3935974-15.09201986 31.40371171-26.11466544 51.07805198-30.71978295m-7.18124845 23.49294033c-14.1459192 5.89318254-26.16026053 16.2432988-35.14252016 28.56540883-14.60187084 19.97070867-21.96549958 45.0138868-20.97380383 69.70370109 58.0655198-0.02279798 116.13103961 0 174.19656031-0.01139852 1.10568386-26.28564719-7.37502818-53.02724779-23.90329685-73.55649856-10.89725891-13.62157365-26.03487385-24.07427947-43.01909592-28.3602297-16.8588345-4.11496934-35.13112159-3.19166578-51.15784355 3.65901686zM488.29048288 821.37500503c18.79663177-4.43413574 38.85853148-3.9097902 57.23340727 2.18857151 15.62776397 5.20925466 29.75088519 14.59047228 40.94451253 26.65040956 14.75005549 15.73035267 24.94058853 35.51868106 30.07005071 56.41269242 4.43413574 17.48576876 3.82999858 35.72385931 2.90669591 53.58578897-2.43934486 0.77511891-4.87868883 1.56163636-7.29523569 2.39374979-19.68573881-0.79791689-39.41707269-0.14818465-59.11421005-0.35336292H436.73368131c-7.15845047 0.04559508-14.3282995-0.22797625-21.47535142 0.31916639-2.97508808-0.07979161-5.95017703-0.05699363-8.92526512-0.03419654-0.29636931-15.28579958-1.15127983-30.7083844 1.28806502-45.88019583 3.8869931-23.2763626 13.82675192-45.70921409 29.43171793-63.50275072 13.30240724-15.47957931 31.38091372-26.92398087 51.23763516-31.77987263m-10.15633653 25.00898161c-13.6671687 6.77089102-25.15716536 17.53136471-33.55808669 30.18403971-13.09722897 19.35517296-19.41216748 43.00769648-18.62564914 66.30685706 58.05412125 0.01139855 116.09684309-0.02279798 174.15096436 0.01139852 1.2310714-25.45353467-6.80508755-51.30602734-22.23907092-71.5959033-10.46410438-13.61017508-24.83799896-24.59862416-41.44606097-29.45451587-19.10439963-5.59681411-40.34037625-4.24035602-58.28209664 4.54812388zM669.80507597 845.34669494c15.54797236-14.79565055 36.0658237-24.31365428 57.44998499-26.33124227 17.41737659-1.66422595 35.41609146 0.49014904 51.47700997 7.64859863 16.48267448 7.26104006 30.85656906 19.10439963 41.44606009 33.64927682 14.97803172 20.23288144 23.81210671 44.93409519 25.0545758 70.07986202 0.49014904 10.61228904 0.01139855 21.23597663-0.12538668 31.85966422H670.43201023c-10.74907425 0.18238118-21.53234505-0.398958-32.25862221 0.31916639-2.26836221-0.04559508-4.51392735-0.12538667-6.77089101-0.19377972 0.23937481-13.41639538-0.60413716-26.86698638 0.6953273-40.22638813 3.48803508-28.81618308 16.50547158-56.77745477 37.70725166-76.80515796m34.02543775 0.86630994c-12.88065126 6.05276662-23.57273191 16.03812052-31.95085436 27.41412903-14.4650856 19.83392346-21.48674997 44.70611894-20.70023251 69.15655846 58.11111488 0.20517828 116.22223064 0.02279798 174.32194609 0.10258956 0.99169574-26.95817741-7.84237924-54.4406995-25.29395148-75.12953345-8.40092044-10.08794349-19.11579817-18.30648273-31.28972358-23.29915968-20.63183946-8.57190219-44.96829172-8.00196243-65.08718416 1.75541608z" p-id="5168"></path><path d="M190.9982122 962.53782421c5.15226015-0.47874961 10.32731827-0.27357134 15.49097787-0.28496985h114.06785568c19.37797096 0.18238118 38.76734046-0.36476148 58.1225143 0.27357131l1.70982101 0.86630906H189.3225877l1.6756245-0.85491052zM415.25832989 962.57202075c7.14705192-0.54714265 14.31690094-0.27357134 21.47535142-0.31916639H553.03570356c19.69713736 0.20517828 39.42847122-0.44455308 59.11421005 0.35336292l-1.94919582 0.78651745H416.94535293l-1.68702304-0.82071398zM638.17338802 962.57202075c10.72627716-0.7181244 21.50954794-0.13678611 32.25862221-0.31916639h174.67530991v1.13988037H636.26978815l1.90359987-0.82071398z" p-id="5169"></path></svg>